<?xml version="1.0" standalone="no"?>
<!DOCTYPE svg PUBLIC "-//W3C//DTD SVG 1.1//EN" "http://www.w3.org/Graphics/SVG/1.1/DTD/svg11.dtd" >
<svg xmlns="http://www.w3.org/2000/svg">
<metadata></metadata>
<defs>
<font id="starkregular" horiz-adv-x="900" >
<font-face units-per-em="2048" ascent="1638" descent="-410" />
<missing-glyph horiz-adv-x="608" />
<glyph horiz-adv-x="2048" />
<glyph horiz-adv-x="2048" />
<glyph unicode="&#xd;" horiz-adv-x="608" />
<glyph unicode=" "  horiz-adv-x="608" />
<glyph unicode="&#x09;" horiz-adv-x="608" />
<glyph unicode="&#xa0;" horiz-adv-x="608" />
<glyph unicode="!" horiz-adv-x="500" d="M0 0v200h300v-200h-300zM0 300v1100h300v-1100h-300z" />
<glyph unicode="&#x22;" horiz-adv-x="1000" d="M0 1000l100 200v200h300v-200l-200 -200h-200zM400 1000l100 200v200h300v-200l-200 -200h-200z" />
<glyph unicode="#" horiz-adv-x="1100" d="M0 400v200h100v200h-100v200h100v300h300v-300h100v300h300v-300h100v-200h-100v-200h100v-200h-100v-300h-300v300h-100v-300h-300v300h-100zM400 600h100v200h-100v-200z" />
<glyph unicode="$" d="M0 200v200h300v-100h100v300h-100q-200 0 -300 100v500q73 73 200 93v107h300v-107q127 -20 200 -93v-300h-300v200h-100v-300h100q200 0 300 -100v-500q-73 -73 -200 -93v-107h-300v107q-127 20 -200 93z" />
<glyph unicode="%" horiz-adv-x="1300" d="M0 900v400q100 100 300 100h100q82 0 146 -17l4 17h300l-171 -800h121q200 0 300 -100v-400q-100 -100 -300 -100h-100q-82 0 -146 17l-4 -17h-300l171 800h-121q-200 0 -300 100zM300 1000h100v200h-100v-200zM700 200h100v200h-100v-200z" />
<glyph unicode="&#x26;" horiz-adv-x="1000" d="M0 100v500q0 70 150 100q-150 30 -150 100v500q100 100 300 100h100q200 0 300 -100v-300h-300v200h-100v-400h100v100h300v-100h100v-200h-100v-600h-400q-200 0 -300 100zM300 200h100v400h-100v-400z" />
<glyph unicode="'" horiz-adv-x="600" d="M0 1000l100 200v200h300v-200l-200 -200h-200z" />
<glyph unicode="(" horiz-adv-x="600" d="M0 -100v1600q100 100 300 100h100v-200h-100v-1400h100v-200h-100q-200 0 -300 100z" />
<glyph unicode=")" horiz-adv-x="600" d="M0 0h100v1400h-100v200h100q200 0 300 -100v-1600q-100 -100 -300 -100h-100v200z" />
<glyph unicode="*" horiz-adv-x="800" d="M0 900l102 75h-102v200h102l-102 75l125 150l175 -127l175 127l125 -150l-102 -75h102v-200h-102l102 -75l-125 -150l-175 127l-175 -127z" />
<glyph unicode="+" d="M0 600v200h200v300h300v-300h200v-200h-200v-300h-300v300h-200z" />
<glyph unicode="," horiz-adv-x="600" d="M0 -200l100 200v200h300v-200l-200 -200h-200z" />
<glyph unicode="-" horiz-adv-x="800" d="M0 600v200h600v-200h-600z" />
<glyph unicode="." horiz-adv-x="500" d="M0 0v200h300v-200h-300z" />
<glyph unicode="/" horiz-adv-x="800" d="M0 0l300 1400h300l-300 -1400h-300z" />
<glyph unicode="0" d="M0 100v1200q100 100 300 100h100q200 0 300 -100v-1200q-100 -100 -300 -100h-100q-200 0 -300 100zM300 200h100v1000h-100v-1000z" />
<glyph unicode="1" horiz-adv-x="600" d="M0 1200v200h400v-1400h-300v1200h-100z" />
<glyph unicode="2" d="M0 0v300l400 550v350h-100v-200h-300v300q100 100 300 100h100q200 0 300 -100v-550l-400 -550h400v-200h-700z" />
<glyph unicode="3" d="M0 100v300h300v-200h100v400h-200v200h200v400h-100v-200h-300v300q100 100 300 100h100q200 0 300 -100v-500q0 -70 -150 -100q150 -30 150 -100v-500q-100 -100 -300 -100h-100q-200 0 -300 100z" />
<glyph unicode="4" d="M0 400v1000h300v-800h100v800h300v-1400h-300v400h-400z" />
<glyph unicode="5" d="M0 100v300h300v-200h100v500h-400v700h700v-200h-400v-300h100q200 0 300 -100v-700q-100 -100 -300 -100h-100q-200 0 -300 100z" />
<glyph unicode="6" d="M0 100v1200q100 100 300 100h100q200 0 300 -100v-300h-300v200h-100v-300h100q200 0 300 -100v-700q-100 -100 -300 -100h-100q-200 0 -300 100zM300 200h100v500h-100v-500z" />
<glyph unicode="7" horiz-adv-x="800" d="M0 0l300 1200h-300v200h600v-200l-300 -1200h-300z" />
<glyph unicode="8" d="M0 100v500q0 70 150 100q-150 30 -150 100v500q100 100 300 100h100q200 0 300 -100v-500q0 -70 -150 -100q150 -30 150 -100v-500q-100 -100 -300 -100h-100q-200 0 -300 100zM300 200h100v400h-100v-400zM300 800h100v400h-100v-400z" />
<glyph unicode="9" d="M0 100v300h300v-200h100v300h-100q-200 0 -300 100v700q100 100 300 100h100q200 0 300 -100v-1200q-100 -100 -300 -100h-100q-200 0 -300 100zM300 700h100v500h-100v-500z" />
<glyph unicode=":" horiz-adv-x="500" d="M0 0v200h300v-200h-300zM0 600v200h300v-200h-300z" />
<glyph unicode=";" horiz-adv-x="600" d="M0 -200l100 200v200h300v-200l-200 -200h-200zM100 600v200h300v-200h-300z" />
<glyph unicode="&#x3c;" d="M0 700l350 400h350l-350 -400l350 -400h-350z" />
<glyph unicode="=" horiz-adv-x="800" d="M0 400v200h600v-200h-600zM0 800v200h600v-200h-600z" />
<glyph unicode="&#x3e;" d="M0 300l350 400l-350 400h350l350 -400l-350 -400h-350z" />
<glyph unicode="?" d="M0 1000v300q100 100 300 100h100q200 0 300 -100v-600q-100 -100 -300 -100v-300h-300v400q100 100 300 100v400h-100v-200h-300zM100 0v200h300v-200h-300z" />
<glyph unicode="@" d="M0 100v1200q100 100 300 100h100q200 0 300 -100v-900h-350v200h50v600h-100v-1000h400v-200h-400q-200 0 -300 100z" />
<glyph unicode="A" d="M0 0v1300q100 100 300 100h100q200 0 300 -100v-1300h-300v600h-100v-600h-300zM300 800h100v400h-100v-400z" />
<glyph unicode="B" d="M0 0v1400h400q200 0 300 -100v-500q0 -70 -150 -100q150 -30 150 -100v-500q-100 -100 -300 -100h-400zM300 200h100v400h-100v-400zM300 800h100v400h-100v-400z" />
<glyph unicode="C" d="M0 100v1200q100 100 300 100h100q200 0 300 -100v-300h-300v200h-100v-1000h100v200h300v-300q-100 -100 -300 -100h-100q-200 0 -300 100z" />
<glyph unicode="D" d="M0 0v1400h400q200 0 300 -100v-1200q-100 -100 -300 -100h-400zM300 200h100v1000h-100v-1000z" />
<glyph unicode="E" horiz-adv-x="800" d="M0 0v1400h600v-200h-300v-400h300v-200h-300v-400h300v-200h-600z" />
<glyph unicode="F" horiz-adv-x="800" d="M0 0v1400h600v-200h-300v-400h300v-200h-300v-600h-300z" />
<glyph unicode="G" d="M0 100v1200q100 100 300 100h100q200 0 300 -100v-300h-300v200h-100v-1000h100v400h-50v200h350v-700q-100 -100 -300 -100h-100q-200 0 -300 100z" />
<glyph unicode="H" d="M0 0v1400h300v-600h100v600h300v-1400h-300v600h-100v-600h-300z" />
<glyph unicode="I" horiz-adv-x="500" d="M0 0v1400h300v-1400h-300z" />
<glyph unicode="J" horiz-adv-x="600" d="M0 0v200h100v1200h300v-1300q-100 -100 -300 -100h-100z" />
<glyph unicode="K" d="M0 0v1400h300v-600h100v600h300v-600q0 -70 -150 -100q150 -30 150 -100v-600h-300v600h-100v-600h-300z" />
<glyph unicode="L" horiz-adv-x="800" d="M0 0v1400h300v-1200h300v-200h-600z" />
<glyph unicode="M" horiz-adv-x="1100" d="M0 0v1400h300l150 -350l150 350h300v-1400h-300v800l-150 -300l-150 300v-800h-300z" />
<glyph unicode="N" horiz-adv-x="1000" d="M0 0v1400h300l200 -550v550h300v-1400h-300l-200 550v-550h-300z" />
<glyph unicode="O" d="M0 100v1200q100 100 300 100h100q200 0 300 -100v-1200q-100 -100 -300 -100h-100q-200 0 -300 100zM300 200h100v1000h-100v-1000z" />
<glyph unicode="P" d="M0 0v1400h400q200 0 300 -100v-600q-100 -100 -300 -100h-100v-600h-300zM300 800h100v400h-100v-400z" />
<glyph unicode="Q" d="M0 100v1200q100 100 300 100h100q200 0 300 -100v-1200q-73 -73 -200 -93v-207h-300v207q-127 20 -200 93zM300 200h100v1000h-100v-1000z" />
<glyph unicode="R" d="M0 0v1400h400q200 0 300 -100v-500q0 -70 -150 -100q150 -30 150 -100v-600h-300v600h-100v-600h-300zM300 800h100v400h-100v-400z" />
<glyph unicode="S" d="M0 100v300h300v-200h100v400h-100q-200 0 -300 100v600q100 100 300 100h100q200 0 300 -100v-300h-300v200h-100v-400h100q200 0 300 -100v-600q-100 -100 -300 -100h-100q-200 0 -300 100z" />
<glyph unicode="T" d="M0 1200v200h700v-200h-200v-1200h-300v1200h-200z" />
<glyph unicode="U" d="M0 100v1300h300v-1200h100v1200h300v-1300q-100 -100 -300 -100h-100q-200 0 -300 100z" />
<glyph unicode="V" d="M0 600v800h300v-800l50 -150l50 150v800h300v-800l-200 -600h-300z" />
<glyph unicode="W" horiz-adv-x="1300" d="M0 100v1300h300v-1200h100v1200h300v-1200h100v1200h300v-1300q-100 -100 -300 -100h-500q-200 0 -300 100z" />
<glyph unicode="X" d="M0 0v600q0 70 150 100q-150 30 -150 100v600h300v-600h100v600h300v-600q0 -70 -150 -100q150 -30 150 -100v-600h-300v600h-100v-600h-300z" />
<glyph unicode="Y" d="M0 700v700h300v-600h100v600h300v-700q-73 -73 -200 -93v-607h-300v607q-127 20 -200 93z" />
<glyph unicode="Z" horiz-adv-x="800" d="M0 0v200l300 1000h-300v200h600v-200l-300 -1000h300v-200h-600z" />
<glyph unicode="[" horiz-adv-x="600" d="M0 -200v1800h400v-200h-100v-1400h100v-200h-400z" />
<glyph unicode="\" horiz-adv-x="800" d="M0 1400h300l300 -1400h-300z" />
<glyph unicode="]" horiz-adv-x="600" d="M0 0h100v1400h-100v200h400v-1800h-400v200z" />
<glyph unicode="^" d="M0 1500l200 400h300l200 -400h-300l-50 100l-50 -100h-300z" />
<glyph unicode="_" horiz-adv-x="1000" d="M0 -200h800v-200h-800v200z" />
<glyph unicode="`" horiz-adv-x="800" d="M0 1900h400l200 -400h-200z" />
<glyph unicode="a" d="M0 0v1100q100 100 300 100h100q200 0 300 -100v-1100h-300v500h-100v-500h-300zM300 700h100v300h-100v-300z" />
<glyph unicode="b" d="M0 0v1200h400q200 0 300 -100v-400q0 -70 -150 -100q150 -30 150 -100v-400q-100 -100 -300 -100h-400zM300 200h100v300h-100v-300zM300 700h100v300h-100v-300z" />
<glyph unicode="c" d="M0 100v1000q100 100 300 100h100q200 0 300 -100v-300h-300v200h-100v-800h100v200h300v-300q-100 -100 -300 -100h-100q-200 0 -300 100z" />
<glyph unicode="d" d="M0 0v1200h400q200 0 300 -100v-1000q-100 -100 -300 -100h-400zM300 200h100v800h-100v-800z" />
<glyph unicode="e" horiz-adv-x="800" d="M0 0v1200h600v-200h-300v-300h300v-200h-300v-300h300v-200h-600z" />
<glyph unicode="f" horiz-adv-x="800" d="M0 0v1200h600v-200h-300v-300h300v-200h-300v-500h-300z" />
<glyph unicode="g" d="M0 100v1000q100 100 300 100h100q200 0 300 -100v-300h-300v200h-100v-800h100v300h-50v200h350v-600q-100 -100 -300 -100h-100q-200 0 -300 100z" />
<glyph unicode="h" d="M0 0v1200h300v-500h100v500h300v-1200h-300v500h-100v-500h-300z" />
<glyph unicode="i" horiz-adv-x="500" d="M0 0v1200h300v-1200h-300z" />
<glyph unicode="j" horiz-adv-x="600" d="M0 0v200h100v1000h300v-1100q-100 -100 -300 -100h-100z" />
<glyph unicode="k" d="M0 0v1200h300v-500h100v500h300v-500q0 -70 -150 -100q150 -30 150 -100v-500h-300v500h-100v-500h-300z" />
<glyph unicode="l" horiz-adv-x="800" d="M0 0v1200h300v-1000h300v-200h-600z" />
<glyph unicode="m" horiz-adv-x="1100" d="M0 0v1200h300l150 -350l150 350h300v-1200h-300v600l-150 -300l-150 300v-600h-300z" />
<glyph unicode="n" horiz-adv-x="1000" d="M0 0v1200h300l200 -500v500h300v-1200h-300l-200 500v-500h-300z" />
<glyph unicode="o" d="M0 100v1000q100 100 300 100h100q200 0 300 -100v-1000q-100 -100 -300 -100h-100q-200 0 -300 100zM300 200h100v800h-100v-800z" />
<glyph unicode="p" d="M0 0v1200h400q200 0 300 -100v-500q-100 -100 -300 -100h-100v-500h-300zM300 700h100v300h-100v-300z" />
<glyph unicode="q" d="M0 100v1000q100 100 300 100h100q200 0 300 -100v-1000q-73 -73 -200 -93v-207h-300v207q-127 20 -200 93zM300 200h100v800h-100v-800z" />
<glyph unicode="r" d="M0 0v1200h400q200 0 300 -100v-400q0 -70 -150 -100q150 -30 150 -100v-500h-300v500h-100v-500h-300zM300 700h100v300h-100v-300z" />
<glyph unicode="s" d="M0 100v300h300v-200h100v300h-100q-200 0 -300 100v500q100 100 300 100h100q200 0 300 -100v-300h-300v200h-100v-300h100q200 0 300 -100v-500q-100 -100 -300 -100h-100q-200 0 -300 100z" />
<glyph unicode="t" d="M0 1000v200h700v-200h-200v-1000h-300v1000h-200z" />
<glyph unicode="u" d="M0 100v1100h300v-1000h100v1000h300v-1100q-100 -100 -300 -100h-100q-200 0 -300 100z" />
<glyph unicode="v" d="M0 600v600h300v-600l50 -150l50 150v600h300v-600l-200 -600h-300z" />
<glyph unicode="w" horiz-adv-x="1300" d="M0 100v1100h300v-1000h100v1000h300v-1000h100v1000h300v-1100q-100 -100 -300 -100h-500q-200 0 -300 100z" />
<glyph unicode="x" d="M0 0v500q0 70 150 100q-150 30 -150 100v500h300v-500h100v500h300v-500q0 -70 -150 -100q150 -30 150 -100v-500h-300v500h-100v-500h-300z" />
<glyph unicode="y" d="M0 600v600h300v-500h100v500h300v-600q-73 -73 -200 -93v-507h-300v507q-127 20 -200 93z" />
<glyph unicode="z" horiz-adv-x="800" d="M0 0v200l350 800h-350v200h600v-200l-350 -800h350v-200h-600z" />
<glyph unicode="{" horiz-adv-x="700" d="M0 600v200h100v700q200 100 300 100h100v-200h-100v-600q0 -70 -150 -100q150 -30 150 -100v-600h100v-200h-100q-100 0 -300 100v700h-100z" />
<glyph unicode="|" horiz-adv-x="500" d="M0 -200v1800h300v-1800h-300z" />
<glyph unicode="}" horiz-adv-x="700" d="M0 0h100v600q0 70 150 100q-150 30 -150 100v600h-100v200h100q100 0 300 -100v-700h100v-200h-100v-700q-200 -100 -300 -100h-100v200z" />
<glyph unicode="~" d="M0 1500v200q100 100 300 100h100v100h300v-200q-100 -100 -300 -100h-100v-100h-300z" />
<glyph unicode="&#xa1;" horiz-adv-x="500" d="M0 0v1100h300v-1100h-300zM0 1200v200h300v-200h-300z" />
<glyph unicode="&#xa2;" d="M0 200v800q73 73 200 93v107h300v-107q127 -20 200 -93v-300h-300v200h-100v-600h100v200h300v-300q-73 -73 -200 -93v-107h-300v107q-127 20 -200 93z" />
<glyph unicode="&#xa3;" d="M0 0v200h100v400h-100v200h100v500q100 100 300 100h300v-200h-300v-400h100v-200h-100v-400h300v-200h-700z" />
<glyph unicode="&#xa4;" d="M0 200v400q0 70 150 100q-150 30 -150 100v400h300v-200h100v200h300v-400q0 -70 -150 -100q150 -30 150 -100v-400h-300v200h-100v-200h-300zM300 600h100v200h-100v-200z" />
<glyph unicode="&#xa5;" d="M0 700v700h300v-600h100v600h300v-700q-22 -22 -50 -40v-160h-150v-200h150v-200h-150v-100h-300v100h-150v200h150v200h-150v160q-28 18 -50 40z" />
<glyph unicode="&#xa6;" horiz-adv-x="500" d="M0 -200v800h300v-800h-300zM0 800v800h300v-800h-300z" />
<glyph unicode="&#xa7;" d="M0 -100v300h300v-200h100v350h-100q-200 0 -300 100v1050q100 100 300 100h100q200 0 300 -100v-300h-300v200h-100v-350h100q200 0 300 -100v-1050q-100 -100 -300 -100h-100q-200 0 -300 100zM300 550h100v300h-100v-300z" />
<glyph unicode="&#xa8;" d="M0 1500v200h300v-200h-300zM400 1500v200h300v-200h-300z" />
<glyph unicode="&#xa9;" horiz-adv-x="950" d="M0 550v800q50 50 150 50h450q100 0 150 -50v-800q-50 -50 -150 -50h-450q-100 0 -150 50zM150 600h450v700h-450v-700zM200 700v500q50 50 150 50h50q100 0 150 -50v-150h-150v100h-50v-400h50v100h150v-150q-50 -50 -150 -50h-50q-100 0 -150 50z" />
<glyph unicode="&#xaa;" horiz-adv-x="748" />
<glyph unicode="&#xab;" horiz-adv-x="870" d="M0 479l342 303h14v-37l-205 -266l205 -266v-37h-14zM313 479l342 303h14v-37l-205 -266l205 -266v-37h-14z" />
<glyph unicode="&#xac;" horiz-adv-x="1027" d="M0 667v100h840v-491l-1 -1h-98v392h-741z" />
<glyph unicode="&#xad;" horiz-adv-x="800" d="M0 600v200h600v-200h-600z" />
<glyph unicode="&#xae;" horiz-adv-x="950" d="M0 550v800q50 50 150 50h450q100 0 150 -50v-800q-50 -50 -150 -50h-450q-100 0 -150 50zM150 600h450v700h-450v-700zM200 650v600h200q100 0 150 -50v-200q0 -35 -75 -50q75 -15 75 -50v-250h-150v250h-50v-250h-150zM350 1000h50v150h-50v-150z" />
<glyph unicode="&#xaf;" horiz-adv-x="770" />
<glyph unicode="&#xb0;" horiz-adv-x="714" d="M0 1164q0 116 81.5 197t197.5 81q115 0 196 -81.5t81 -196.5q0 -114 -82 -196t-197 -82q-117 0 -197 81t-80 197zM70 1163q0 -87 61 -147t148 -60t147 60t60 147t-60.5 148t-146.5 61t-147.5 -61t-61.5 -148z" />
<glyph unicode="&#xb1;" horiz-adv-x="1114" />
<glyph unicode="&#xb2;" horiz-adv-x="1114" />
<glyph unicode="&#xb3;" horiz-adv-x="1114" />
<glyph unicode="&#xb4;" horiz-adv-x="800" d="M0 1500l200 400h400l-400 -400h-200z" />
<glyph unicode="&#xb5;" d="M0 0v1400h300v-1200h100v1200h300v-1300q-100 -100 -300 -100h-400z" />
<glyph unicode="&#xb6;" horiz-adv-x="1200" d="M0 700v600q100 100 300 100h700v-1400h-300v1200h-100v-1200h-300v600q-200 0 -300 100z" />
<glyph unicode="&#xb7;" horiz-adv-x="500" d="M0 600v200h300v-200h-300z" />
<glyph unicode="&#xb8;" horiz-adv-x="500" d="M0 7l100 193h100l100 -193v-207h-300v207z" />
<glyph unicode="&#xb9;" horiz-adv-x="1114" />
<glyph unicode="&#xba;" horiz-adv-x="818" />
<glyph unicode="&#xbb;" horiz-adv-x="943" d="M0 176v37l205 266l-205 266v37h14l342 -303l-342 -303h-14zM313 176v37l205 266l-205 266v37h14l342 -303l-342 -303h-14z" />
<glyph unicode="&#xbc;" horiz-adv-x="1808" />
<glyph unicode="&#xbd;" horiz-adv-x="2064" />
<glyph unicode="&#xbe;" horiz-adv-x="1808" />
<glyph unicode="&#xbf;" d="M0 100v600q100 100 300 100v300h300v-400q-100 -100 -300 -100v-400h100v200h300v-300q-100 -100 -300 -100h-100q-200 0 -300 100zM300 1200v200h300v-200h-300z" />
<glyph unicode="&#xc0;" d="M0 0v1300q100 100 300 100h100q200 0 300 -100v-1300h-300v600h-100v-600h-300zM50 1900h400l200 -400h-200zM300 800h100v400h-100v-400z" />
<glyph unicode="&#xc1;" d="M0 0v1300q100 100 300 100h100q200 0 300 -100v-1300h-300v600h-100v-600h-300zM50 1500l200 400h400l-400 -400h-200zM300 800h100v400h-100v-400z" />
<glyph unicode="&#xc2;" d="M0 0v1300q100 100 300 100h100q200 0 300 -100v-1300h-300v600h-100v-600h-300zM0 1500l200 400h300l200 -400h-300l-50 100l-50 -100h-300zM300 800h100v400h-100v-400z" />
<glyph unicode="&#xc3;" d="M0 0v1300q100 100 300 100h100q200 0 300 -100v-1300h-300v600h-100v-600h-300zM0 1500v200q100 100 300 100h100v100h300v-200q-100 -100 -300 -100h-100v-100h-300zM300 800h100v400h-100v-400z" />
<glyph unicode="&#xc4;" d="M0 0v1300q100 100 300 100h100q200 0 300 -100v-1300h-300v600h-100v-600h-300zM0 1500v200h300v-200h-300zM300 800h100v400h-100v-400zM400 1500v200h300v-200h-300z" />
<glyph unicode="&#xc5;" d="M0 0v1300q100 100 300 100h100q200 0 300 -100v-1300h-300v600h-100v-600h-300zM200 1500v200h300v-200h-300zM300 800h100v400h-100v-400z" />
<glyph unicode="&#xc6;" horiz-adv-x="1200" d="M0 0v1300q100 100 300 100h700v-200h-300v-400h300v-200h-300v-400h300v-200h-600v600h-100v-600h-300zM300 800h100v400h-100v-400z" />
<glyph unicode="&#xc7;" d="M0 100v1200q100 100 300 100h100q200 0 300 -100v-300h-300v200h-100v-1000h100v200h300v-300q-73 -73 -200 -93v-207h-300v207q-127 20 -200 93z" />
<glyph unicode="&#xc8;" horiz-adv-x="800" d="M0 0v1400h600v-200h-300v-400h300v-200h-300v-400h300v-200h-600zM0 1900h400l200 -400h-200z" />
<glyph unicode="&#xc9;" horiz-adv-x="800" d="M0 0v1400h600v-200h-300v-400h300v-200h-300v-400h300v-200h-600zM0 1500l200 400h400l-400 -400h-200z" />
<glyph unicode="&#xca;" horiz-adv-x="850" d="M0 1500l200 400h300l200 -400h-300l-50 100l-50 -100h-300zM50 0v1400h600v-200h-300v-400h300v-200h-300v-400h300v-200h-600z" />
<glyph unicode="&#xcb;" horiz-adv-x="850" d="M0 1500v200h300v-200h-300zM50 0v1400h600v-200h-300v-400h300v-200h-300v-400h300v-200h-600zM400 1500v200h300v-200h-300z" />
<glyph unicode="&#xcc;" horiz-adv-x="650" d="M0 1900h400l200 -400h-200zM150 0v1400h300v-1400h-300z" />
<glyph unicode="&#xcd;" horiz-adv-x="650" d="M0 1500l200 400h400l-400 -400h-200zM150 0v1400h300v-1400h-300z" />
<glyph unicode="&#xce;" horiz-adv-x="700" d="M0 1500l200 400h300l200 -400h-300l-50 100l-50 -100h-300zM200 0v1400h300v-1400h-300z" />
<glyph unicode="&#xcf;" horiz-adv-x="700" d="M0 1500v200h300v-200h-300zM200 0v1400h300v-1400h-300zM400 1500v200h300v-200h-300z" />
<glyph unicode="&#xd0;" horiz-adv-x="1000" d="M0 600v200h100v600h400q200 0 300 -100v-1200q-100 -100 -300 -100h-400v600h-100zM400 200h100v1000h-100v-400h50v-200h-50v-400z" />
<glyph unicode="&#xd1;" horiz-adv-x="1000" d="M0 0v1400h300l200 -550v550h300v-1400h-300l-200 550v-550h-300zM50 1500v200q100 100 300 100h100v100h300v-200q-100 -100 -300 -100h-100v-100h-300z" />
<glyph unicode="&#xd2;" d="M0 100v1200q100 100 300 100h100q200 0 300 -100v-1200q-100 -100 -300 -100h-100q-200 0 -300 100zM50 1900h400l200 -400h-200zM300 200h100v1000h-100v-1000z" />
<glyph unicode="&#xd3;" d="M0 100v1200q100 100 300 100h100q200 0 300 -100v-1200q-100 -100 -300 -100h-100q-200 0 -300 100zM50 1500l200 400h400l-400 -400h-200zM300 200h100v1000h-100v-1000z" />
<glyph unicode="&#xd4;" d="M0 100v1200q100 100 300 100h100q200 0 300 -100v-1200q-100 -100 -300 -100h-100q-200 0 -300 100zM0 1500l200 400h300l200 -400h-300l-50 100l-50 -100h-300zM300 200h100v1000h-100v-1000z" />
<glyph unicode="&#xd5;" d="M0 100v1200q100 100 300 100h100q200 0 300 -100v-1200q-100 -100 -300 -100h-100q-200 0 -300 100zM0 1500v200q100 100 300 100h100v100h300v-200q-100 -100 -300 -100h-100v-100h-300zM300 200h100v1000h-100v-1000z" />
<glyph unicode="&#xd6;" d="M0 100v1200q100 100 300 100h100q200 0 300 -100v-1200q-100 -100 -300 -100h-100q-200 0 -300 100zM0 1500v200h300v-200h-300zM300 200h100v1000h-100v-1000zM400 1500v200h300v-200h-300z" />
<glyph unicode="&#xd7;" d="M0 200v400q0 70 150 100q-150 30 -150 100v400h300v-400h100v400h300v-400q0 -70 -150 -100q150 -30 150 -100v-400h-300v400h-100v-400h-300z" />
<glyph unicode="&#xd8;" d="M0 100v1200q100 100 300 100h100q200 0 300 -100v-1200q-100 -100 -300 -100h-100q-200 0 -300 100zM300 200h100v250zM300 950l100 250h-100v-250z" />
<glyph unicode="&#xd9;" d="M0 100v1300h300v-1200h100v1200h300v-1300q-100 -100 -300 -100h-100q-200 0 -300 100zM50 1900h400l200 -400h-200z" />
<glyph unicode="&#xda;" d="M0 100v1300h300v-1200h100v1200h300v-1300q-100 -100 -300 -100h-100q-200 0 -300 100zM50 1500l200 400h400l-400 -400h-200z" />
<glyph unicode="&#xdb;" d="M0 100v1300h300v-1200h100v1200h300v-1300q-100 -100 -300 -100h-100q-200 0 -300 100zM0 1500l200 400h300l200 -400h-300l-50 100l-50 -100h-300z" />
<glyph unicode="&#xdc;" d="M0 100v1300h300v-1200h100v1200h300v-1300q-100 -100 -300 -100h-100q-200 0 -300 100zM0 1500v200h300v-200h-300zM400 1500v200h300v-200h-300z" />
<glyph unicode="&#xdd;" d="M0 700v700h300v-600h100v600h300v-700q-73 -73 -200 -93v-607h-300v607q-127 20 -200 93zM0 1500l200 400h400l-400 -400h-200z" />
<glyph unicode="&#xde;" d="M0 0v1400h300v-200h100q200 0 300 -100v-800q-100 -100 -300 -100h-100v-200h-300zM300 400h100v600h-100v-600z" />
<glyph unicode="&#xdf;" d="M0 0v1300q100 100 300 100h100q200 0 300 -100v-500q0 -70 -150 -100q150 -30 150 -100v-500q-100 -100 -300 -100h-50v200h50v400h-50v200h50v400h-100v-1200h-300z" />
<glyph unicode="&#xe0;" d="M0 0v1100q100 100 300 100h100q200 0 300 -100v-1100h-300v500h-100v-500h-300zM50 1700h400l200 -400h-200zM300 700h100v300h-100v-300z" />
<glyph unicode="&#xe1;" d="M0 0v1100q100 100 300 100h100q200 0 300 -100v-1100h-300v500h-100v-500h-300zM50 1300l200 400h400l-400 -400h-200zM300 700h100v300h-100v-300z" />
<glyph unicode="&#xe2;" d="M0 0v1100q100 100 300 100h100q200 0 300 -100v-1100h-300v500h-100v-500h-300zM0 1300l200 400h300l200 -400h-300l-50 100l-50 -100h-300zM300 700h100v300h-100v-300z" />
<glyph unicode="&#xe3;" d="M0 0v1100q100 100 300 100h100q200 0 300 -100v-1100h-300v500h-100v-500h-300zM0 1300v200q100 100 300 100h100v100h300v-200q-100 -100 -300 -100h-100v-100h-300zM300 700h100v300h-100v-300z" />
<glyph unicode="&#xe4;" d="M0 0v1100q100 100 300 100h100q200 0 300 -100v-1100h-300v500h-100v-500h-300zM0 1300v200h300v-200h-300zM300 700h100v300h-100v-300zM400 1300v200h300v-200h-300z" />
<glyph unicode="&#xe5;" d="M0 0v1100q100 100 300 100h100q200 0 300 -100v-1100h-300v500h-100v-500h-300zM200 1300v200h300v-200h-300zM300 700h100v300h-100v-300z" />
<glyph unicode="&#xe6;" horiz-adv-x="1200" d="M0 0v1100q100 100 300 100h700v-200h-300v-300h300v-200h-300v-300h300v-200h-600v500h-100v-500h-300zM300 700h100v300h-100v-300z" />
<glyph unicode="&#xe7;" d="M0 100v1000q100 100 300 100h100q200 0 300 -100v-300h-300v200h-100v-800h100v200h300v-300q-73 -73 -200 -93v-207h-300v207q-127 20 -200 93z" />
<glyph unicode="&#xe8;" horiz-adv-x="800" d="M0 0v1200h600v-200h-300v-300h300v-200h-300v-300h300v-200h-600zM0 1700h400l200 -400h-200z" />
<glyph unicode="&#xe9;" horiz-adv-x="800" d="M0 0v1200h600v-200h-300v-300h300v-200h-300v-300h300v-200h-600zM0 1300l200 400h400l-400 -400h-200z" />
<glyph unicode="&#xea;" horiz-adv-x="850" d="M0 1300l200 400h300l200 -400h-300l-50 100l-50 -100h-300zM50 0v1200h600v-200h-300v-300h300v-200h-300v-300h300v-200h-600z" />
<glyph unicode="&#xeb;" horiz-adv-x="850" d="M0 1300v200h300v-200h-300zM50 0v1200h600v-200h-300v-300h300v-200h-300v-300h300v-200h-600zM400 1300v200h300v-200h-300z" />
<glyph unicode="&#xec;" horiz-adv-x="650" d="M0 1700h400l200 -400h-200zM150 0v1200h300v-1200h-300z" />
<glyph unicode="&#xed;" horiz-adv-x="650" d="M0 1300l200 400h400l-400 -400h-200zM150 0v1200h300v-1200h-300z" />
<glyph unicode="&#xee;" horiz-adv-x="700" d="M0 1300l200 400h300l200 -400h-300l-50 100l-50 -100h-300zM200 0v1200h300v-1200h-300z" />
<glyph unicode="&#xef;" horiz-adv-x="700" d="M0 1300v200h300v-200h-300zM200 0v1200h300v-1200h-300zM400 1300v200h300v-200h-300z" />
<glyph unicode="&#xf0;" horiz-adv-x="1000" d="M0 500v200h100v500h400q200 0 300 -100v-1000q-100 -100 -300 -100h-400v500h-100zM400 200h100v800h-100v-300h50v-200h-50v-300z" />
<glyph unicode="&#xf1;" horiz-adv-x="1000" d="M0 0v1200h300l200 -500v500h300v-1200h-300l-200 500v-500h-300zM50 1300v200q100 100 300 100h100v100h300v-200q-100 -100 -300 -100h-100v-100h-300z" />
<glyph unicode="&#xf2;" d="M0 100v1000q100 100 300 100h100q200 0 300 -100v-1000q-100 -100 -300 -100h-100q-200 0 -300 100zM50 1700h400l200 -400h-200zM300 200h100v800h-100v-800z" />
<glyph unicode="&#xf3;" d="M0 100v1000q100 100 300 100h100q200 0 300 -100v-1000q-100 -100 -300 -100h-100q-200 0 -300 100zM50 1300l200 400h400l-400 -400h-200zM300 200h100v800h-100v-800z" />
<glyph unicode="&#xf4;" d="M0 100v1000q100 100 300 100h100q200 0 300 -100v-1000q-100 -100 -300 -100h-100q-200 0 -300 100zM0 1300l200 400h300l200 -400h-300l-50 100l-50 -100h-300zM300 200h100v800h-100v-800z" />
<glyph unicode="&#xf5;" d="M0 100v1000q100 100 300 100h100q200 0 300 -100v-1000q-100 -100 -300 -100h-100q-200 0 -300 100zM0 1300v200q100 100 300 100h100v100h300v-200q-100 -100 -300 -100h-100v-100h-300zM300 200h100v800h-100v-800z" />
<glyph unicode="&#xf6;" d="M0 100v1000q100 100 300 100h100q200 0 300 -100v-1000q-100 -100 -300 -100h-100q-200 0 -300 100zM0 1300v200h300v-200h-300zM300 200h100v800h-100v-800zM400 1300v200h300v-200h-300z" />
<glyph unicode="&#xf7;" d="M0 600v200h700v-200h-700zM200 300v200h300v-200h-300zM200 900v200h300v-200h-300z" />
<glyph unicode="&#xf8;" d="M0 100v1000q100 100 300 100h100q200 0 300 -100v-1000q-100 -100 -300 -100h-100q-200 0 -300 100zM300 200h100v200zM300 800l100 200h-100v-200z" />
<glyph unicode="&#xf9;" d="M0 100v1100h300v-1000h100v1000h300v-1100q-100 -100 -300 -100h-100q-200 0 -300 100zM50 1700h400l200 -400h-200z" />
<glyph unicode="&#xfa;" d="M0 100v1100h300v-1000h100v1000h300v-1100q-100 -100 -300 -100h-100q-200 0 -300 100zM50 1300l200 400h400l-400 -400h-200z" />
<glyph unicode="&#xfb;" d="M0 100v1100h300v-1000h100v1000h300v-1100q-100 -100 -300 -100h-100q-200 0 -300 100zM0 1300l200 400h300l200 -400h-300l-50 100l-50 -100h-300z" />
<glyph unicode="&#xfc;" d="M0 100v1100h300v-1000h100v1000h300v-1100q-100 -100 -300 -100h-100q-200 0 -300 100zM0 1300v200h300v-200h-300zM400 1300v200h300v-200h-300z" />
<glyph unicode="&#xfd;" d="M0 600v600h300v-500h100v500h300v-600q-73 -73 -200 -93v-507h-300v507q-127 20 -200 93zM0 1300l200 400h400l-400 -400h-200z" />
<glyph unicode="&#xfe;" d="M0 0v1200h300v-200h100q200 0 300 -100v-600q-100 -100 -300 -100h-100v-200h-300zM300 400h100v400h-100v-400z" />
<glyph unicode="&#xff;" d="M0 600v600h300v-500h100v500h300v-600q-73 -73 -200 -93v-507h-300v507q-127 20 -200 93zM0 1300v200h300v-200h-300zM400 1300v200h300v-200h-300z" />
<glyph unicode="&#x2c6;" d="M0 1500l200 400h300l200 -400h-300l-50 100l-50 -100h-300z" />
<glyph unicode="&#x2dc;" horiz-adv-x="1000" d="M0 1500v300q100 100 300 100l200 -100v100h300v-300q-100 -100 -300 -100l-200 100v-100h-300z" />
<glyph unicode="&#x2000;" horiz-adv-x="950" />
<glyph unicode="&#x2001;" horiz-adv-x="1900" />
<glyph unicode="&#x2002;" horiz-adv-x="950" />
<glyph unicode="&#x2003;" horiz-adv-x="1900" />
<glyph unicode="&#x2004;" horiz-adv-x="633" />
<glyph unicode="&#x2005;" horiz-adv-x="475" />
<glyph unicode="&#x2006;" horiz-adv-x="316" />
<glyph unicode="&#x2007;" horiz-adv-x="316" />
<glyph unicode="&#x2008;" horiz-adv-x="237" />
<glyph unicode="&#x2009;" horiz-adv-x="380" />
<glyph unicode="&#x200a;" horiz-adv-x="105" />
<glyph unicode="&#x2010;" horiz-adv-x="800" d="M0 600v200h600v-200h-600z" />
<glyph unicode="&#x2011;" horiz-adv-x="800" d="M0 600v200h600v-200h-600z" />
<glyph unicode="&#x2012;" horiz-adv-x="800" d="M0 600v200h600v-200h-600z" />
<glyph unicode="&#x2013;" horiz-adv-x="1152" d="M0 419v120h996v-120h-996z" />
<glyph unicode="&#x2014;" horiz-adv-x="2148" d="M0 419v120h2048v-120h-2048z" />
<glyph unicode="&#x2018;" horiz-adv-x="600" d="M0 1000v200l200 200h200l-100 -200v-200h-300z" />
<glyph unicode="&#x2019;" horiz-adv-x="600" d="M0 1000l100 200v200h300v-200l-200 -200h-200z" />
<glyph unicode="&#x201a;" horiz-adv-x="600" d="M0 -200l100 200v200h300v-200l-200 -200h-200z" />
<glyph unicode="&#x201c;" horiz-adv-x="1000" d="M0 1000v200l200 200h200l-100 -200v-200h-300zM400 1000v200l200 200h200l-100 -200v-200h-300z" />
<glyph unicode="&#x201d;" horiz-adv-x="1000" d="M0 1000l100 200v200h300v-200l-200 -200h-200zM400 1000l100 200v200h300v-200l-200 -200h-200z" />
<glyph unicode="&#x201e;" horiz-adv-x="1000" d="M0 -200l100 200v200h300v-200l-200 -200h-200zM400 -200l100 200v200h300v-200l-200 -200h-200z" />
<glyph unicode="&#x2022;" horiz-adv-x="908" d="M0 718q0 123 87 209t210 86q122 0 208.5 -86.5t86.5 -208.5t-87.5 -209.5t-209.5 -87.5q-123 0 -209 87t-86 210z" />
<glyph unicode="&#x2026;" horiz-adv-x="1200" d="M0 0v200h300v-200h-300zM350 0v200h300v-200h-300zM700 0v200h300v-200h-300z" />
<glyph unicode="&#x202f;" horiz-adv-x="380" />
<glyph unicode="&#x2039;" d="M0 700l350 400h350l-350 -400l350 -400h-350z" />
<glyph unicode="&#x203a;" d="M0 300l350 400l-350 400h350l350 -400l-350 -400h-350z" />
<glyph unicode="&#x205f;" horiz-adv-x="475" />
<glyph unicode="&#x20ac;" horiz-adv-x="1000" d="M0 400v200h100v200h-100v200h100v300q100 100 300 100h100q200 0 300 -100v-200h-300v100h-100v-200h200v-200h-200v-200h200v-200h-200v-200h100v100h300v-200q-100 -100 -300 -100h-100q-200 0 -300 100v300h-100z" />
<glyph unicode="&#x2122;" horiz-adv-x="1050" d="M0 1300v100h350v-100h-100v-600h-150v600h-100zM400 700v700h150l75 -175l75 175h150v-700h-150v400l-75 -150l-75 150v-400h-150z" />
<glyph unicode="&#x25fc;" horiz-adv-x="1200" d="M0 0v1200h1200v-1200h-1200z" />
</font>
</defs>
</svg>
